<?xml version="1.0" encoding="utf-8"?>
<!-- Generator: Adobe Illustrator 25.4.1, SVG Export Plug-In . SVG Version: 6.00 Build 0)  -->
<svg version="1.1" id="Слой_1" xmlns="http://www.w3.org/2000/svg" xmlns:xlink="http://www.w3.org/1999/xlink" x="0px" y="0px"
	 width="104px" height="104px" viewBox="0 0 104 104" style="enable-background:new 0 0 104 104;" xml:space="preserve">
<circle style="fill:#7195C9;" cx="52" cy="52" r="51"/>
<path style="fill:#FFFFFF;" d="M74.8,17.8H47.3c-4,0-7.2,3.2-7.2,7.2v16.6c-6.9,5.9-17.4,15.2-17.8,17.6c-0.1,0.5-0.4,2.2,0.6,27
	l2.5-0.1c-0.8-21.4-0.7-25.8-0.6-26.4c0.5-1.4,7.8-8.3,15.4-14.8v8h2.5V42.8c0,0,0,0,0,0l0,0V25c0-2.6,2.1-4.7,4.7-4.7h21.5v57.5
	h-17v2.5h23c4,0,7.2-3.2,7.2-7.2V25C82.1,21,78.8,17.8,74.8,17.8z M79.6,73c0,2.6-2.1,4.7-4.7,4.7h-3.5V20.2h3.5
	c2.6,0,4.7,2.1,4.7,4.7V73z"/>
<path style="fill:#FFFFFF;" d="M57.9,50.9c-2.6-2.3-7.1-1.8-10,1.2L34.1,66.9l1.8,1.7l13.9-14.9c1.9-2,4.9-2.4,6.5-1
	c1.7,1.5,1.8,4.6,0.2,6.9L39.1,85.5l2.1,1.4L58.6,61C60.9,57.7,60.6,53.1,57.9,50.9z"/>
</svg>
