<?xml version="1.0" encoding="utf-8"?>
<!-- Generator: Adobe Illustrator 25.4.1, SVG Export Plug-In . SVG Version: 6.00 Build 0)  -->
<svg version="1.1" id="Слой_1" xmlns="http://www.w3.org/2000/svg" xmlns:xlink="http://www.w3.org/1999/xlink" x="0px" y="0px"
	 width="104px" height="104px" viewBox="0 0 104 104" style="enable-background:new 0 0 104 104;" xml:space="preserve">
<circle style="fill:#7195C9;" cx="52" cy="52" r="51"/>
<path style="fill:#FFFFFF;" d="M45.4,41.1c0.3,0,0.5-0.1,0.7-0.2c0.6-0.4,0.7-1.2,0.3-1.7c-1.9-2.7-3-5.9-3-9.2
	c0-4.2,1.7-8.3,4.7-11.1c0.5-0.5,0.5-1.3,0.1-1.8c-0.5-0.5-1.3-0.5-1.8-0.1c-3.5,3.3-5.5,8-5.5,12.9c0,3.8,1.2,7.5,3.4,10.6
	C44.6,41,45,41.1,45.4,41.1z"/>
<path style="fill:#FFFFFF;" d="M52.4,15.9c1.9-0.9,4.1-1.4,6.4-1.4c8.5,0,15.5,6.9,15.5,15.4c0,3.4-1.2,6.8-3.3,9.6
	c-0.4,0.5-0.3,1.3,0.2,1.8c0.2,0.2,0.5,0.3,0.8,0.3c0.4,0,0.8-0.2,1-0.5c2.5-3.3,3.9-7.2,3.9-11.2c0-9.9-8.1-17.9-18-17.9
	c-2.6,0-5.2,0.6-7.4,1.6c-0.6,0.3-0.9,1-0.6,1.7C51.1,16,51.8,16.2,52.4,15.9z"/>
<path style="fill:#FFFFFF;" d="M65.3,20.7c-0.6-0.4-1.3-0.3-1.7,0.3L52.1,37.6c-0.4,0.6-0.3,1.3,0.3,1.7c0.2,0.2,0.5,0.2,0.7,0.2
	c0.4,0,0.8-0.2,1-0.5l11.5-16.6C66,21.8,65.9,21.1,65.3,20.7z"/>
<path style="fill:#FFFFFF;" d="M53.3,28.5c2.5,0,4.5-2,4.5-4.5c0-2.5-2-4.4-4.5-4.4s-4.5,2-4.5,4.4C48.8,26.5,50.8,28.5,53.3,28.5z
	 M53.3,22.1c1.1,0,2,0.8,2,1.9c0,1.1-0.8,2-2,2s-2-0.8-2-2C51.3,22.9,52.2,22.1,53.3,22.1z"/>
<path style="fill:#FFFFFF;" d="M64.4,40.5c2.5,0,4.4-2,4.4-4.5c0-2.5-2-4.4-4.4-4.4c-2.5,0-4.5,2-4.5,4.4
	C59.9,38.5,61.9,40.5,64.4,40.5z M64.4,34.1c1.1,0,1.9,0.8,1.9,1.9c0,1.1-0.8,2-1.9,2c-1.1,0-2-0.8-2-2
	C62.4,34.9,63.3,34.1,64.4,34.1z"/>
<path style="fill:#FFFFFF;" d="M59.1,66.4c1.1,0,2.1-0.9,2.1-2c0-1.1-0.9-2.1-2.1-2.1c-1.1,0-2,0.9-2,2.1C57,65.4,58,66.4,59.1,66.4
	z"/>
<path style="fill:#FFFFFF;" d="M78.5,55.1H56.7c-3.4,0-6.1,2.8-6.1,6.2v6.2c0,3.2,2.5,5.9,5.6,6.1c0.2,0.1,0.3,0.1,0.5,0.1H73V79
	c0,2-1.6,3.6-3.6,3.6H29.7c-2,0-3.6-1.6-3.6-3.6V45.5c0.5,0.2,1.1,0.3,1.6,0.3h41.7c2,0,3.6,1.6,3.6,3.8v2.8h2.5v-2.8
	c0-3.4-2.8-6.2-6.1-6.2H27.7c-0.9,0-1.6-0.8-1.6-1.8c0-1,0.8-1.9,1.6-1.9h12v-2.5h-12c-2.2,0-4.1,2-4.1,4.4V79
	c0,3.4,2.8,6.1,6.1,6.1h39.7c3.4,0,6.1-2.8,6.1-6.1v-5.3h3c0.7,0,1.2-0.6,1.2-1.2V56.4C79.8,55.7,79.2,55.1,78.5,55.1z M77.3,71.2
	H57.2c-0.2-0.1-0.3-0.1-0.5-0.1c-2,0-3.6-1.6-3.6-3.6v-6.2c0-2,1.6-3.7,3.6-3.7h20.6V71.2z"/>
</svg>
