<?xml version="1.0" encoding="utf-8"?>
<!-- Generator: Adobe Illustrator 25.4.1, SVG Export Plug-In . SVG Version: 6.00 Build 0)  -->
<svg version="1.1" id="Слой_1" xmlns="http://www.w3.org/2000/svg" xmlns:xlink="http://www.w3.org/1999/xlink" x="0px" y="0px"
	 width="104px" height="104px" viewBox="0 0 104 104" style="enable-background:new 0 0 104 104;" xml:space="preserve">
<circle style="fill:#7195C9;" cx="52" cy="52" r="51"/>
<path style="fill:#FFFFFF;" d="M31.4,28.3c5,3.9,5.8,9.9,5.8,10c0.1,0.6,0.6,1.1,1.2,1.1c0.1,0,0.1,0,0.2,0c0.7-0.1,1.2-0.7,1.1-1.4
	c0-0.3-0.9-7.1-6.8-11.7c-0.1-0.1-0.2-0.2-0.2-0.2c-0.3-0.6,0.8-2.2,2.9-3.1c1.6-0.7,3.1-0.7,3.8-0.4c0.2,0.1,0.3,0.2,0.4,0.3
	c0,0.2,0,0.3,0,0.6c-0.8,7.4,3.5,12.7,3.7,12.9c0.4,0.5,1.2,0.6,1.8,0.2c0.5-0.4,0.6-1.2,0.2-1.8c0,0-0.8-1-1.6-2.7
	c2.8-0.5,5.7-0.4,8.5,0.4c0.6,0.1,1.2-0.1,1.4-0.6c0.8-1.5,2-4.5,1.5-8.3c0-0.2,0-0.3,0-0.3c0.1-0.3,1.4-0.7,3.1,0
	c1.7,0.8,2.3,1.9,2.2,2.2c0,0-0.1,0.1-0.2,0.2c-2.8,2.4-4.1,5.4-4.6,6.9c-0.2,0.6,0.1,1.2,0.6,1.5c1.4,0.7,2.7,1.7,3.9,2.8l1.7-1.8
	c-1.1-1-2.3-1.9-3.5-2.6c0.6-1.4,1.7-3.3,3.6-4.9c0,0,0.1,0,0.1-0.1c0.2-0.2,0.6-0.6,0.8-1.1c0.8-1.9-0.7-4.2-3.6-5.4
	c-2.8-1.1-5.5-0.5-6.3,1.5c-0.2,0.5-0.2,0.9-0.2,1.3c0,0.1,0,0.1,0,0.2c0.3,2.5-0.3,4.6-0.9,6c-3-0.7-6.1-0.7-9.1-0.1
	c-0.5-1.7-0.8-3.7-0.6-6l0-0.1c0-0.4,0-0.9-0.1-1.4L42.2,22c-0.3-0.8-0.9-1.4-1.8-1.8c-1.5-0.6-3.7-0.5-5.7,0.4
	c-3.3,1.4-5.2,4.1-4.3,6.2C30.6,27.6,31.2,28.1,31.4,28.3z"/>
<path style="fill:#FFFFFF;" d="M35.8,59.7c-0.1-0.7-0.7-1.2-1.4-1.1c-0.3,0-7.1,0.9-11.7,6.8c-0.1,0.1-0.2,0.2-0.2,0.2
	c-0.6,0.3-2.2-0.8-3.1-2.9c-0.7-1.6-0.7-3.1-0.4-3.8c0.1-0.2,0.2-0.3,0.3-0.4c0.2,0,0.3,0,0.6,0c7.4,0.8,12.7-3.5,12.9-3.7
	c0.5-0.4,0.6-1.2,0.2-1.8c-0.4-0.5-1.2-0.6-1.8-0.2c0,0-1,0.8-2.6,1.6c-0.6-3-0.5-6,0.4-8.7c0.2-0.6-0.1-1.2-0.7-1.5
	c-1.9-0.9-4.8-1.8-8.2-1.4c-0.2,0-0.3,0-0.3,0c-0.3-0.1-0.7-1.4,0-3.1c0.8-1.8,1.9-2.3,2.2-2.2c0,0,0.1,0.1,0.2,0.2
	c2.4,2.8,5.4,4.1,6.9,4.6c0.6,0.2,1.2-0.1,1.5-0.6c0.9-1.7,2.1-3.3,3.3-4.5l-1.7-1.8c-1.2,1.1-2.4,2.6-3.3,4.2
	c-1.4-0.6-3.3-1.7-4.9-3.6c0,0,0-0.1-0.1-0.1c-0.2-0.2-0.6-0.6-1.1-0.8c-1.9-0.8-4.2,0.7-5.4,3.6c-1.1,2.8-0.5,5.5,1.5,6.3
	c0.6,0.2,1,0.2,1.5,0.2c2.3-0.3,4.4,0.2,6,0.8c-0.7,3-0.7,6.2,0,9.3c-1.7,0.5-3.8,0.9-6.1,0.6l-0.1,0c-0.4,0-0.9,0-1.4,0.1l-0.2,0.1
	c-0.8,0.3-1.4,0.9-1.8,1.8c-0.6,1.5-0.5,3.7,0.4,5.7c1.2,2.8,3.3,4.5,5.2,4.5c0.4,0,0.7-0.1,1.1-0.2c0.7-0.2,1.2-0.9,1.4-1.1
	c3.9-5,9.9-5.8,10-5.8C35.4,61.1,35.9,60.4,35.8,59.7z"/>
<path style="fill:#FFFFFF;" d="M50.6,69.7c-2.8,0.5-5.7,0.3-8.4-0.5c-0.6-0.2-1.2,0.1-1.5,0.7c-1.3,2.8-1.7,5.6-1.4,8.2
	c0,0.2,0,0.3,0,0.3c-0.1,0.3-1.4,0.7-3.1,0c-1.7-0.8-2.3-1.9-2.2-2.2c0,0,0.1-0.1,0.2-0.2c2.8-2.4,4.1-5.4,4.6-6.9
	c0.2-0.6-0.1-1.2-0.6-1.5c-1.7-0.9-3.3-2.1-4.7-3.6l-1.8,1.8c1.3,1.3,2.8,2.5,4.3,3.5c-0.6,1.4-1.7,3.3-3.6,4.9c0,0-0.1,0-0.1,0.1
	c-0.2,0.2-0.6,0.6-0.8,1.1c-0.8,1.9,0.7,4.2,3.6,5.4c0.9,0.4,1.9,0.5,2.7,0.5c1.7,0,3.1-0.7,3.6-2c0.2-0.5,0.2-0.9,0.2-1.3
	c0-0.1,0-0.1,0-0.2c-0.2-1.9,0-3.9,0.8-6c2.7,0.6,5.6,0.7,8.4,0.3L50.6,69.7z"/>
<path style="fill:#FFFFFF;" d="M39.5,49.5c-0.5,0.2-1.2,0.2-1.7,0c-0.6-0.2-1-0.7-1.2-1.2c-0.2-0.6-1-1-1.6-0.7
	c-0.6,0.2-1,1-0.7,1.6c0.5,1.2,1.4,2.1,2.6,2.6c0.6,0.2,1.2,0.4,1.8,0.4c0.6,0,1.2-0.1,1.8-0.4c1.2-0.5,2.1-1.4,2.6-2.6
	c0.5-1.2,0.5-2.5,0-3.6c-0.5-1.2-1.4-2.1-2.6-2.6c-1.2-0.5-2.5-0.5-3.7,0c-0.6,0.3-0.9,1-0.6,1.6c0.3,0.6,1,0.9,1.6,0.6
	c0.5-0.2,1.2-0.2,1.7,0c0.6,0.2,1,0.7,1.2,1.3c0.2,0.5,0.2,1.2,0,1.7C40.5,48.8,40.1,49.2,39.5,49.5z"/>
<path style="fill:#FFFFFF;" d="M53.7,46.7c1.2-0.5,2.1-1.4,2.6-2.6c0.5-1.2,0.5-2.5,0-3.6c-0.5-1.2-1.4-2.1-2.6-2.6
	c-1.2-0.5-2.5-0.5-3.7,0c-0.6,0.3-0.9,1-0.6,1.6s1,0.9,1.6,0.6c0.5-0.2,1.2-0.2,1.7,0c0.6,0.2,1,0.7,1.2,1.3c0.2,0.5,0.2,1.2,0,1.7
	c-0.2,0.6-0.7,1-1.3,1.2c-0.5,0.2-1.2,0.2-1.7,0c-0.6-0.2-1-0.7-1.2-1.2c-0.2-0.6-1-1-1.6-0.7c-0.6,0.3-1,1-0.7,1.6
	c0.5,1.2,1.4,2.1,2.6,2.6c0.6,0.2,1.2,0.4,1.8,0.4C52.5,47,53.1,46.9,53.7,46.7z"/>
<path style="fill:#FFFFFF;" d="M44.8,63.2c0.6,0.2,1.2,0.4,1.8,0.4c0.6,0,1.2-0.1,1.8-0.4c1.2-0.5,2.1-1.4,2.6-2.6
	c0.5-1.2,0.5-2.5,0-3.6c-0.5-1.2-1.4-2.1-2.6-2.6c-1.2-0.5-2.5-0.5-3.7,0c-0.6,0.3-0.9,1-0.6,1.6c0.3,0.6,1,0.9,1.6,0.6
	c0.5-0.2,1.2-0.2,1.7,0c0.6,0.2,1,0.7,1.2,1.3c0.2,0.5,0.2,1.2,0,1.7c-0.2,0.6-0.7,1-1.3,1.2c-0.5,0.2-1.2,0.2-1.7,0
	c-0.6-0.2-1-0.7-1.2-1.2c-0.2-0.6-1-1-1.6-0.7c-0.6,0.2-1,1-0.7,1.6C42.7,61.7,43.6,62.7,44.8,63.2z"/>
<polygon style="fill:#FFFFFF;" points="73.1,29.3 75.6,30.5 74.2,33.5 76.4,34.5 79,29.3 71.9,26.1 69.4,31.3 71.6,32.3 "/>
<path style="fill:#FFFFFF;" d="M84.6,74.4c1.4-3.1,2.1-6.5,2.1-10c0-6.6-2.7-12.9-7.7-17.6c-0.2-2.5-1.8-4.5-4-5.2l1.8-4l-9.6-4.3
	L56.5,56.4l9.7,4.4l2.7-6l-2.3-1L65,57.5l-5.1-2.4l8.6-18.6l5,2.3l-1.1,2.5c-2.9,0.4-5.2,2.9-5.2,5.9c0,3.3,2.7,5.9,5.9,5.9
	c2.4,0,4.4-1.4,5.4-3.4c3.7,4.1,5.8,9.2,5.8,14.6c0,3.4-0.8,6.9-2.4,10H77v2.5h7.6c0.4,0,0.8,0.3,0.8,0.8v1.8h-33v-1.8
	c0-0.4,0.3-0.8,0.8-0.8h9.6c8.9,0,16.1-7,16.1-15.5c0-2.1-0.5-4.2-1.4-6.3l-2.3,1c0.8,1.8,1.2,3.5,1.2,5.3c0,6.1-4.4,11.3-10.4,12.7
	v-6.7h3.2c0.7,0,1.2-0.6,1.2-1.2s-0.6-1.2-1.2-1.2H52.7c-0.7,0-1.2,0.6-1.2,1.2s0.6,1.2,1.2,1.2h3.5v7.1h-3.1
	c-1.8,0-3.2,1.5-3.2,3.2v3c0,0.7,0.6,1.2,1.2,1.2h35.5c0.7,0,1.2-0.6,1.2-1.2v-3C87.8,75.8,86.4,74.4,84.6,74.4z M73.1,50.6
	c-1.9,0-3.4-1.5-3.4-3.4s1.5-3.5,3.4-3.5c2,0,3.5,1.5,3.5,3.5C76.5,49.1,75,50.6,73.1,50.6z M58.7,67.2h4.8v7.1c-0.2,0-0.5,0-0.8,0
	h-4V67.2z"/>
</svg>
