<?xml version="1.0" encoding="utf-8"?>
<!-- Generator: Adobe Illustrator 25.4.1, SVG Export Plug-In . SVG Version: 6.00 Build 0)  -->
<svg version="1.1" id="Слой_1" xmlns="http://www.w3.org/2000/svg" xmlns:xlink="http://www.w3.org/1999/xlink" x="0px" y="0px"
	 width="104px" height="104px" viewBox="0 0 104 104" style="enable-background:new 0 0 104 104;" xml:space="preserve">
<circle style="fill:#7195C9;" cx="52" cy="52" r="51"/>
<path style="fill:#FFFFFF;" d="M89,69.7c-0.2-0.3-0.6-0.5-1-0.5h-5.7v-5.4h-2.5v5.4H58c-0.4,0-0.7,0.2-1,0.4l-0.6,0.8h-9.7l-0.6-0.8
	c-0.2-0.3-0.6-0.4-1-0.4H23.3V33.9c0-1.7,1.3-3,3-3h50.5c1.7,0,3,1.3,3,3v0.6h2.5v-0.6c0-3.1-2.4-5.5-5.5-5.5H26.3
	c-3.1,0-5.5,2.4-5.5,5.5v35.4h-5.7c-0.4,0-0.7,0.2-1,0.5c-0.2,0.3-0.3,0.7-0.2,1.1c0.1,0.3,1.6,6.7,6.6,6.7h62.1
	c5.2,0,6.6-6.4,6.6-6.7C89.3,70.4,89.2,70,89,69.7z M82.6,74.9H20.5c-1.9,0-3.1-1.8-3.7-3.2h27.7l0.6,0.8c0.2,0.3,0.6,0.4,1,0.4H57
	c0.4,0,0.7-0.2,1-0.4l0.6-0.8h27.7C85.7,73.1,84.6,74.9,82.6,74.9z"/>
<path style="fill:#FFFFFF;" d="M88.9,40.1v-2.5h-17v1.6l-7.1-3.1l-9,0c-0.3,0-2.6,0.2-4.8,3l-6.2,8.1l0.3,0.7c0.1,0.3,1.3,2.5,3.5,3
	c1.4,0.3,2.8-0.1,4.2-1.2l4.2-4.2c0.7,0.1,1.9,0.2,2.7,0.2l7.1,13.5c-0.4,0.8-0.9,1.5-1.3,1.5c-0.1,0-0.6-0.2-1.3-1.5l-4-6.2
	c-0.4-0.6-1.1-0.7-1.7-0.4c-0.6,0.4-0.7,1.1-0.4,1.7l4,6.1c0,0,0,0.1,0.1,0.1l-1.5,1.1c-0.7,0.3-1.1,0.4-1.7-0.4
	c0-0.1,0-0.2-0.1-0.3l-2.9-5c-0.3-0.6-1.1-0.8-1.7-0.5c-0.6,0.3-0.8,1.1-0.5,1.7l2.9,4.9l-1.7,0.9c0,0-0.3,0.2-0.6,0.1
	c-0.2-0.1-0.5-0.3-0.7-0.7l0,0c0,0,0,0,0-0.1l-1.8-3.1c-0.3-0.6-1.1-0.8-1.7-0.5c-0.6,0.3-0.8,1.1-0.5,1.7l1.6,2.7l-1.3,0.5
	c-0.6,0.1-1.6,0.1-2.3-1l-5.1-8.7h-2.5V40.2h6.6v-2.5h-6.6v-2.1h-8v2.5h5.5v18.3h-5.6V59h8.1v-2.4h1l4.3,7.5c1,1.7,2.5,2.3,3.9,2.3
	c0.4,0,0.8-0.1,1.2-0.1l2.4-0.9c0.3,0.2,0.6,0.3,0.8,0.3c0.3,0.1,0.5,0.1,0.7,0.1c0.8,0,1.5-0.3,1.7-0.5l2.1-1.1
	c0.5,0.2,1,0.3,1.4,0.3c0.8,0,1.4-0.2,1.8-0.4l2.2-1.5c0.6,0.4,1.1,0.6,1.8,0.6c0.1,0,0.2,0,0.3,0c2.1-0.2,3.3-2.8,3.7-4h2.4v1.6h17
	v-2.5H74.3V40.1H88.9z M68.3,56.7l-7.1-13.5h-0.8c-0.4,0-2.5-0.2-3.8-0.3L56,42.9l-4.9,4.9c-0.7,0.6-1.4,0.8-2,0.7
	c-0.6-0.1-1.1-0.6-1.4-1.1l5.2-6.8c1.5-1.9,2.9-2,2.9-2h8.4l7.6,3.3v14.9H68.3z"/>
</svg>
