<?xml version="1.0" encoding="utf-8"?>
<!-- Generator: Adobe Illustrator 25.4.1, SVG Export Plug-In . SVG Version: 6.00 Build 0)  -->
<svg version="1.1" id="Слой_1" xmlns="http://www.w3.org/2000/svg" xmlns:xlink="http://www.w3.org/1999/xlink" x="0px" y="0px"
	 width="104px" height="104px" viewBox="0 0 104 104" style="enable-background:new 0 0 104 104;" xml:space="preserve">
<circle style="fill:#7195C9;" cx="52" cy="52" r="51"/>
<path style="fill:#FFFFFF;" d="M61.3,29.1v-1.2c0-2.4-2-4.3-4.3-4.3h-1.2c-2.4,0-4.4,2-4.4,4.3v1.2h2.5v-1.2c0-1,0.8-1.8,1.9-1.8H57
	c1,0,1.8,0.8,1.8,1.8v1.2H61.3z"/>
<path style="fill:#FFFFFF;" d="M56.3,21c0.7,0,1.2-0.6,1.2-1.2V16c0-0.7-0.6-1.2-1.2-1.2S55,15.3,55,16v3.7C55,20.4,55.6,21,56.3,21
	z"/>
<path style="fill:#FFFFFF;" d="M61.1,22.1c0.3,0,0.6-0.1,0.9-0.4l2.6-2.6c0.5-0.5,0.5-1.3,0-1.8s-1.3-0.5-1.8,0L60.2,20
	c-0.5,0.5-0.5,1.3,0,1.8C60.5,22,60.8,22.1,61.1,22.1z"/>
<path style="fill:#FFFFFF;" d="M50.7,21.8c0.2,0.2,0.6,0.3,0.9,0.3c0.3,0,0.7-0.1,0.9-0.4c0.5-0.5,0.5-1.3,0-1.8l-2.7-2.6
	c-0.5-0.5-1.3-0.5-1.8,0c-0.5,0.5-0.5,1.3,0,1.8L50.7,21.8z"/>
<rect x="37.9" y="69.5" style="fill:#FFFFFF;" width="27.8" height="2.5"/>
<path style="fill:#FFFFFF;" d="M90.5,64.4h-0.2v-5.5c0-0.5-0.3-1-0.8-1.1l-11.8-5.1L69.3,41c-0.2-0.3-0.6-0.5-1-0.5h-6v-5.1
	c0-1.8-1.5-3.3-3.3-3.3H16c-1.8,0-3.4,1.5-3.4,3.3v33.4c0,1.8,1.5,3.3,3.4,3.3h5c0.3,3.5,3.3,6.4,6.9,6.4c3.8,0,6.9-3.2,6.9-7
	c0-3.8-3.1-7-6.9-7c-3.1,0-5.8,2.1-6.7,5H16c-0.4,0-0.9-0.3-0.9-0.8V51.6h9v-2.5h-9V35.4c0-0.4,0.3-0.8,0.9-0.8h43
	c0.4,0,0.8,0.3,0.8,0.8v13.8h-8.8v2.5h8.8v8.5h2.5V43h5.3l6.9,9.5h-8.6V55h10.8l11.1,4.8v4.6H85v2.5h4.2v2.6h-6.6
	c-0.9-2.8-3.5-4.8-6.6-4.8c-3.8,0-7,3.2-7,7s3.2,7,7,7c3.6,0,6.7-3,6.9-6.6h7.6c0.7,0,1.2-0.6,1.2-1.2v-5.1
	C91.8,64.9,91.2,64.4,90.5,64.4z M27.9,67.1c2.5,0,4.4,2,4.4,4.5c0,2.4-2,4.5-4.4,4.5s-4.5-2-4.5-4.5S25.5,67.1,27.9,67.1z M76,76.1
	c-2.4,0-4.5-2-4.5-4.5s2-4.5,4.5-4.5c2.5,0,4.5,2,4.5,4.5C80.5,74,78.4,76.1,76,76.1z"/>
<path style="fill:#FFFFFF;" d="M41.9,60.7v-5.9h5.9v-8.6h-5.9v-5.9h-8.5v5.9h-5.9v8.6h5.9v5.9H41.9z M30,52.4v-3.6h5.9v-5.9h3.5v5.9
	h5.9v3.6h-5.9v5.9h-3.5v-5.9H30z"/>
</svg>
