<?xml version="1.0" encoding="utf-8"?>
<!-- Generator: Adobe Illustrator 25.4.1, SVG Export Plug-In . SVG Version: 6.00 Build 0)  -->
<svg version="1.1" id="Слой_1" xmlns="http://www.w3.org/2000/svg" xmlns:xlink="http://www.w3.org/1999/xlink" x="0px" y="0px"
	 width="104px" height="104px" viewBox="0 0 104 104" style="enable-background:new 0 0 104 104;" xml:space="preserve">
<circle style="fill:#7195C9;" cx="52" cy="52" r="51"/>
<path style="fill:#FFFFFF;" d="M66.8,50.9c1.9,3.2,3,6.8,3.2,10.4h-9.2c0-1.8-0.2-3.6-0.6-5.4l-2.5,0.5c0.3,1.6,0.5,3.3,0.5,4.9
	h-9.8V37.2h-1.2c-0.9,0-1.8,0.1-2.7,0.1l0,0c0,0,0,0,0,0c-12.7,1.4-22.6,12.2-22.6,25.2c0,14,11.4,25.3,25.4,25.3
	s25.4-11.4,25.4-25.3c0-4.5-1.2-8.9-3.6-12.9L66.8,50.9z M70,63.9c-0.3,4.7-1.9,8.9-4.5,12.5c-1.9-1-4.1-2.1-6.8-2.9
	c1.2-3.2,1.9-6.4,2.1-9.5H70z M58.2,63.9c-0.2,2.9-0.9,5.9-2,8.8c-2.4-0.6-5-1-7.8-1.1v-7.8H58.2z M48.4,85.4V74.1
	c2.5,0.1,4.7,0.4,6.8,0.9c-1.6,3.5-3.8,6.9-6.7,10.4C48.6,85.4,48.5,85.4,48.4,85.4z M45.7,85.4c-2.9-3.6-5.1-7-6.6-10.3
	c2.4-0.6,4.7-0.9,6.9-1v11.3C45.9,85.4,45.8,85.4,45.7,85.4z M38.1,72.8c-1.2-3.1-1.8-6.1-2-8.9h9.8v7.8
	C43.5,71.7,40.8,72.1,38.1,72.8z M24.4,61.4c0.3-4.7,1.9-8.9,4.5-12.5c2.2,1.1,4.3,2,6.5,2.7c-1,2.9-1.7,6.2-1.8,9.7H24.4z
	 M33.7,63.9c0.2,3,0.8,6.2,2,9.6c-2.2,0.7-4.4,1.7-6.8,2.9c-2.7-3.5-4.3-7.8-4.6-12.5H33.7z M36.1,61.4c0.1-3.3,0.7-6.4,1.6-9
	c2.7,0.7,5.5,1.2,8.2,1.3v7.8H36.1z M45.9,39.8v11.3c-2.4-0.1-4.9-0.5-7.3-1.1c2.3-5.2,5.5-8.8,6.9-10.1
	C45.7,39.8,45.8,39.8,45.9,39.8z M41.7,40.4c-1.6,2-3.7,5.1-5.3,8.9c-1.9-0.6-3.9-1.4-5.8-2.4C33.5,43.8,37.4,41.5,41.7,40.4z
	 M30.6,78.3c2.1-1,4.1-1.9,6.1-2.5c1.3,2.9,3.1,5.9,5.4,9C37.6,83.8,33.7,81.5,30.6,78.3z M52.2,84.9c2.3-3,4.1-6.1,5.5-9.2
	c2.3,0.7,4.4,1.6,6.1,2.5C60.7,81.5,56.7,83.9,52.2,84.9z"/>
<path style="fill:#FFFFFF;" d="M73.6,14.7c-6.9-3.4-15.4-0.5-18.9,6.4c-3.2,6.5-1.5,31-1.4,32c0,0.4,0.3,0.8,0.7,1
	c0.2,0.1,0.4,0.1,0.6,0.1c0.2,0,0.5-0.1,0.7-0.2c0.9-0.6,21.4-14,24.7-20.5c0,0,0,0,0,0C83.3,26.6,80.5,18.1,73.6,14.7z M77.7,32.4
	c-2.3,4.5-15.4,13.8-22.1,18.3c-0.5-8.1-0.9-24.1,1.3-28.6c2.1-4.1,6.2-6.4,10.5-6.4c1.7,0,3.4,0.4,5.1,1.2
	C78.1,19.8,80.5,26.7,77.7,32.4z"/>
<path style="fill:#FFFFFF;" d="M70.2,21.2c-3.4-1.6-7.3-0.2-9.1,3.1c-1.6,3.3-0.2,7.4,3.1,9.1c1,0.4,1.9,0.7,2.9,0.7
	c2.5,0,4.9-1.4,6.1-3.7c0,0,0,0,0,0C74.9,26.9,73.5,22.9,70.2,21.2z M71.1,29.1c-1.1,2.1-3.6,2.9-5.7,1.9c-2.1-1.1-3-3.7-2-5.7
	c0.8-1.5,2.3-2.4,3.9-2.4c0.6,0,1.3,0.1,1.9,0.4C71.2,24.5,72.1,27.1,71.1,29.1z"/>
</svg>
