<?xml version="1.0" encoding="utf-8"?>
<!-- Generator: Adobe Illustrator 25.4.1, SVG Export Plug-In . SVG Version: 6.00 Build 0)  -->
<svg version="1.1" id="Слой_1" xmlns="http://www.w3.org/2000/svg" xmlns:xlink="http://www.w3.org/1999/xlink" x="0px" y="0px"
	 width="104px" height="104px" viewBox="0 0 104 104" style="enable-background:new 0 0 104 104;" xml:space="preserve">
<circle style="fill:#7195C9;" cx="52" cy="52" r="51"/>
<path style="fill:#FFFFFF;" d="M44.8,23.2c0-1.7,1.4-3.1,3.1-3.1h8.2c1.7,0,3.1,1.4,3.1,3.1v4.5h2.5v-4.5c0-3.1-2.5-5.6-5.6-5.6
	h-8.2c-3.1,0-5.6,2.5-5.6,5.6v4.5h2.5V23.2z"/>
<path style="fill:#FFFFFF;" d="M77.1,38.5l2-1.6c-2.3-2.9-5.1-5.4-8.3-7.6l-1.4,2.1C72.4,33.4,75,35.8,77.1,38.5z"/>
<path style="fill:#FFFFFF;" d="M52,38.6v2.5c9.5,0,17.2,7.7,17.2,17.2S61.5,75.6,52,75.6c-9.6,0-17.4-7.7-17.4-17.2h-2.5
	c0,10.9,8.9,19.8,19.9,19.8c10.9,0,19.8-8.9,19.8-19.8S62.9,38.6,52,38.6z"/>
<path style="fill:#FFFFFF;" d="M71.6,38.6c-4.9-4.9-11.4-7.7-18.3-8v-5.8h-2.5v5.8C36,31.3,24.3,43.5,24.3,58.4
	c0,15.3,12.4,27.8,27.8,27.8s27.8-12.4,27.8-27.8C79.8,50.9,76.8,43.9,71.6,38.6z M52,83.6c-13.9,0-25.2-11.3-25.2-25.2
	S38.1,33.1,52,33.1c0.1,0,0.1,0,0.2,0c6.7,0,12.9,2.6,17.6,7.2c4.8,4.8,7.5,11.2,7.5,18C77.3,72.3,65.9,83.6,52,83.6z"/>
<path style="fill:#FFFFFF;" d="M45.8,58.4c0,3.4,2.8,6.2,6.2,6.2c2.2,0,4.1-1.2,5.2-2.9l4.6,1.7l0.9-2.3l-4.7-1.7
	c0-0.3,0.1-0.6,0.1-0.9c0-3.4-2.8-6.1-6.1-6.1c-2.2,0-4.1,1.2-5.2,2.9l-12.9-4.8l-0.9,2.3l12.9,4.8C45.9,57.8,45.8,58.1,45.8,58.4z
	 M52,54.7c2,0,3.6,1.6,3.6,3.6S54,62.1,52,62.1s-3.7-1.6-3.7-3.7S50,54.7,52,54.7z"/>
</svg>
