<?xml version="1.0" encoding="utf-8"?>
<!-- Generator: Adobe Illustrator 25.4.1, SVG Export Plug-In . SVG Version: 6.00 Build 0)  -->
<svg version="1.1" id="Слой_1" xmlns="http://www.w3.org/2000/svg" xmlns:xlink="http://www.w3.org/1999/xlink" x="0px" y="0px"
	 width="51.5px" height="66px" viewBox="0 0 51.5 66" style="enable-background:new 0 0 51.5 66;" xml:space="preserve">
<path style="fill:#7195C9;" d="M19.9,17.4h8.3V9.1h-8.3V17.4z M22.4,11.6h3.3v3.3h-3.3V11.6z"/>
<path style="fill:#7195C9;" d="M43.1,9.1h-8.3v8.3h8.3V9.1z M40.6,14.9h-3.3v-3.3h3.3V14.9z"/>
<path style="fill:#7195C9;" d="M19.9,32.3h8.3V24h-8.3V32.3z M22.4,26.5h3.3v3.3h-3.3V26.5z"/>
<path style="fill:#7195C9;" d="M34.8,32.3h8.3V24h-8.3V32.3z M37.3,26.5h3.3v3.3h-3.3V26.5z"/>
<rect x="30.3" y="9.1" style="fill:#7195C9;" width="2.5" height="8.3"/>
<rect x="30.3" y="29.1" style="fill:#7195C9;" width="2.5" height="3.1"/>
<polygon style="fill:#7195C9;" points="26.8,22 30.3,22 30.3,27.1 32.8,27.1 32.8,19.5 26.8,19.5 "/>
<rect x="19.9" y="19.5" style="fill:#7195C9;" width="4.8" height="2.5"/>
<rect x="34.8" y="19.5" style="fill:#7195C9;" width="8.3" height="2.5"/>
<path style="fill:#7195C9;" d="M28.9,36c-2.2-1.9-5.7-1.5-8.1,0.9L9.7,48.5l1.8,1.7l11.2-11.5c1.4-1.4,3.5-1.8,4.7-0.8
	c1.2,1,1.2,3.3,0.1,4.9L13,64.6L15,66l14.5-21.7C31.3,41.5,31.1,37.9,28.9,36z"/>
<path style="fill:#7195C9;" d="M50.3,0H12.7c-0.7,0-1.2,0.6-1.2,1.2v29.5C0.4,39.8,0.2,41.3,0.1,41.9c-0.3,1.9,0.4,19.8,0.5,23.4
	l2.5-0.1c-0.3-8-0.7-21.2-0.6-22.8c0.3-0.6,2.5-3,9-8.4v5.8H14V2.5H49v45.9H30v2.5h20.3c0.7,0,1.2-0.6,1.2-1.2V1.3
	C51.5,0.6,51,0,50.3,0z"/>
</svg>
