<?xml version="1.0" encoding="utf-8"?>
<!-- Generator: Adobe Illustrator 25.4.1, SVG Export Plug-In . SVG Version: 6.00 Build 0)  -->
<svg version="1.1" id="Слой_1" xmlns="http://www.w3.org/2000/svg" xmlns:xlink="http://www.w3.org/1999/xlink" x="0px" y="0px"
	 width="52.9px" height="64px" viewBox="0 0 52.9 64" style="enable-background:new 0 0 52.9 64;" xml:space="preserve">
<path style="fill:#7195C9;" d="M26.4,11.3c3.1,0,5.6-2.5,5.6-5.6v0c0-3.1-2.5-5.6-5.6-5.6c-3.1,0-5.6,2.5-5.6,5.6
	S23.3,11.3,26.4,11.3z M26.4,2.4c1.8,0,3.2,1.4,3.2,3.2v0c0,1.8-1.4,3.2-3.2,3.2c-1.8,0-3.2-1.4-3.2-3.2S24.6,2.4,26.4,2.4z"/>
<path style="fill:#7195C9;" d="M15.1,29.6c0,3.9,1.5,6.4,4.3,6.9V40h2.4V22h-2.4v12c-0.9-0.4-1.9-1.4-1.9-4.4v-9.4
	c0-2.6,2.1-4.6,4.6-4.7h8.5c0,0,0,0,0,0c2.6,0,4.7,2.1,4.7,4.7v9.4c0,3-1,4.1-1.9,4.4V22h-2.4V40h2.4v-3.5c2.7-0.6,4.3-3,4.3-6.9
	v-9.4c0-3.9-3.2-7.1-7.1-7.1h0h-8.5c-3.9,0-7,3.2-7,7.1V29.6z"/>
<path style="fill:#7195C9;" d="M15.9,9.5c0-2.9-2.4-5.3-5.3-5.3c-2.9,0-5.3,2.4-5.3,5.3s2.4,5.3,5.3,5.3S15.9,12.4,15.9,9.5
	L15.9,9.5z M13.5,9.5c0,1.6-1.3,2.9-2.9,2.9s-2.9-1.3-2.9-2.9S9,6.6,10.6,6.6C12.2,6.6,13.5,7.9,13.5,9.5L13.5,9.5z"/>
<path style="fill:#7195C9;" d="M0,23.4v8.7c0,3.7,1.4,6,4,6.5v14.1h2.4V25.1H4v11c-0.8-0.4-1.6-1.4-1.6-4v-8.7
	c0-2.3,1.9-4.2,4.2-4.3h6.2v-2.4H6.6C3,16.8,0,19.7,0,23.4z"/>
<rect x="9.4" y="37.8" style="fill:#7195C9;" width="2.4" height="14.9"/>
<path style="fill:#7195C9;" d="M47.6,9.5c0-2.9-2.4-5.3-5.3-5.3S37,6.5,37,9.5s2.4,5.3,5.3,5.3S47.6,12.4,47.6,9.5z M39.4,9.5
	c0-1.6,1.3-2.9,2.9-2.9c1.6,0,2.9,1.3,2.9,2.9s-1.3,2.9-2.9,2.9C40.7,12.4,39.4,11.1,39.4,9.5z"/>
<path style="fill:#7195C9;" d="M46.2,16.7H40v2.4h6.2c2.3,0,4.2,1.9,4.2,4.3v8.7c0,2.6-0.8,3.6-1.6,4v-11h-2.4v27.7h2.4V38.6
	c2.5-0.5,4-2.9,4-6.5v-8.7C52.9,19.7,49.9,16.8,46.2,16.7z"/>
<rect x="41.1" y="37.8" style="fill:#7195C9;" width="2.4" height="14.9"/>
<path style="fill:#7195C9;" d="M20.1,43.2c-0.6,0.4-0.7,1.1-0.3,1.7s1.1,0.7,1.7,0.3c4.1-2.8,9.7-1.7,12.4,2.4
	c2.8,4.1,1.7,9.7-2.4,12.4c-2,1.3-4.4,1.8-6.7,1.4c-2.4-0.5-4.4-1.8-5.7-3.8c-1-1.5-1.5-3.2-1.5-5c0-1.5,0.4-3.1,1.2-4.4
	c0.3-0.6,0.1-1.3-0.5-1.6c-0.6-0.3-1.3-0.1-1.6,0.5c-1,1.7-1.5,3.6-1.5,5.6c0,2.3,0.7,4.4,2,6.3c1.7,2.5,4.3,4.2,7.3,4.8
	c0.7,0.1,1.5,0.2,2.2,0.2c2.2,0,4.4-0.7,6.3-2c5.2-3.5,6.6-10.6,3.1-15.8C32.4,41.1,25.3,39.7,20.1,43.2z"/>
<polygon style="fill:#7195C9;" points="23.3,57.5 26.4,54.3 29.6,57.5 31.3,55.8 28.1,52.6 31.3,49.5 29.6,47.8 26.4,50.9 
	23.3,47.8 21.6,49.5 24.7,52.6 21.6,55.8 "/>
</svg>
