<?xml version="1.0" encoding="utf-8"?>
<!-- Generator: Adobe Illustrator 25.4.1, SVG Export Plug-In . SVG Version: 6.00 Build 0)  -->
<svg version="1.1" id="Слой_1" xmlns="http://www.w3.org/2000/svg" xmlns:xlink="http://www.w3.org/1999/xlink" x="0px" y="0px"
	 width="64px" height="64px" viewBox="0 0 64 64" style="enable-background:new 0 0 64 64;" xml:space="preserve">
<path style="fill:#7195C9;" d="M28.1,18.9h-9.2v9.2h9.2C28.1,28.1,28.1,18.9,28.1,18.9z M25.6,25.6h-4.2v-4.2h4.2
	C25.6,21.4,25.6,25.6,25.6,25.6z"/>
<path style="fill:#7195C9;" d="M36.1,28.1h9.2v-9.2h-9.2V28.1z M38.6,21.4h4.2v4.2h-4.2V21.4z"/>
<path style="fill:#7195C9;" d="M18.9,45.3h9.2v-9.2h-9.2C18.9,36.1,18.9,45.3,18.9,45.3z M21.4,38.6h4.2v4.2h-4.2
	C21.4,42.8,21.4,38.6,21.4,38.6z"/>
<path style="fill:#7195C9;" d="M36.1,45.3h9.2v-9.2h-9.2V45.3z M38.6,38.6h4.2v4.2h-4.2V38.6z"/>
<rect x="30.9" y="18.9" style="fill:#7195C9;" width="2.5" height="9.2"/>
<rect x="30.9" y="41.7" style="fill:#7195C9;" width="2.5" height="3.6"/>
<polygon style="fill:#7195C9;" points="26.7,33.3 30.9,33.3 30.9,39.5 33.4,39.5 33.4,30.8 26.7,30.8 "/>
<rect x="18.9" y="30.8" style="fill:#7195C9;" width="5.1" height="2.5"/>
<rect x="36.1" y="30.8" style="fill:#7195C9;" width="9.2" height="2.5"/>
<path style="fill:#7195C9;" d="M32,0C14.3,0,0,14.3,0,32s14.3,32,32,32s32-14.3,32-32S49.7,0,32,0z M52.3,53.1l-5.7-5.7l-1.9,1.9
	l5.6,5.6c-12.6,10.1-31,8-41.1-4.6c-8.5-10.7-8.5-25.9,0-36.5l6.5,6.5l2-1.9L11,11.8c11.4-11.4,30-11.5,41.4,0
	C63.7,23.1,63.7,41.7,52.3,53.1z"/>
</svg>
