<svg xmlns="http://www.w3.org/2000/svg" width="40px" height="40px" viewBox="0 0 40 40">
<path fill="#96a1b1" d="M20.55,10.76c-4.77,0-8.65,3.88-8.65,8.65
c0,1.63,0.46,3.23,1.32,4.6l0.21,0.33l-0.87,3.19l3.27-0.86l0.32,0.19c1.33,0.79,2.85,1.21,4.4,1.21h0c4.77,0,8.65-3.88,8.65-8.65
c0-2.31-0.9-4.48-2.53-6.12S22.86,10.76,20.55,10.76z M25.63,23.12c-0.22,0.61-1.26,1.16-1.76,1.24c-0.45,0.07-1.01,0.09-1.64-0.1
c-0.38-0.12-0.86-0.28-1.48-0.55c-2.61-1.13-4.31-3.75-4.44-3.93c-0.13-0.17-1.06-1.41-1.06-2.69c0-1.28,0.67-1.91,0.91-2.17
c0.24-0.26,0.52-0.33,0.69-0.33c0.17,0,0.35,0,0.5,0.01c0.16,0.01,0.37-0.06,0.58,0.45c0.22,0.52,0.74,1.8,0.8,1.93
c0.07,0.13,0.11,0.28,0.02,0.46c-0.09,0.17-0.13,0.28-0.26,0.43c-0.13,0.15-0.27,0.34-0.39,0.46c-0.13,0.13-0.27,0.27-0.11,0.53
s0.67,1.11,1.45,1.8c0.99,0.89,1.83,1.16,2.09,1.29c0.26,0.13,0.41,0.11,0.56-0.07c0.15-0.17,0.65-0.76,0.82-1.02
c0.17-0.26,0.35-0.22,0.59-0.13c0.24,0.09,1.52,0.72,1.78,0.85c0.26,0.13,0.43,0.2,0.5,0.3C25.85,22,25.85,22.52,25.63,23.12z"/>
<path fill="#96a1b1" d="M20,0C8.96,0,0,8.95,0,20s8.96,20,20,20c11.05,0,20-8.95,20-20
S31.05,0,20,0z M20.54,29.82C20.54,29.82,20.54,29.82,20.54,29.82L20.54,29.82c-1.75,0-3.46-0.44-4.98-1.27L10.05,30l1.48-5.39
c-0.91-1.58-1.39-3.37-1.39-5.2C10.14,13.67,14.81,9,20.54,9c2.78,0,5.4,1.08,7.36,3.05s3.05,4.58,3.04,7.36
C30.95,25.15,26.28,29.82,20.54,29.82z"/>
</svg>
