<?xml version="1.0" encoding="utf-8"?>
<!-- Generator: Adobe Illustrator 25.4.1, SVG Export Plug-In . SVG Version: 6.00 Build 0)  -->
<svg version="1.1" id="Слой_1" xmlns="http://www.w3.org/2000/svg" xmlns:xlink="http://www.w3.org/1999/xlink" x="0px" y="0px"
	 width="104px" height="104px" viewBox="0 0 104 104" style="enable-background:new 0 0 104 104;" xml:space="preserve">
<circle style="fill:#7195C9;" cx="52" cy="52" r="51"/>
<path style="fill:#FDFEFF;" d="M21.8,31.9c0-1.8,1.5-3.3,3.3-3.4H79c1.8,0,3.3,1.5,3.3,3.4V66h2.5V31.9c0-3.2-2.6-5.8-5.8-5.9H25.2
	c-3.2,0-5.8,2.6-5.8,5.9V66h2.5V31.9z"/>
<path style="fill:#FDFEFF;" d="M91.9,70.1c-0.2-0.3-0.6-0.5-1-0.5H59c-0.4,0-0.7,0.2-1,0.5l-0.7,0.8H46.9l-0.7-0.8
	c-0.2-0.3-0.6-0.5-1-0.5h-32c-0.4,0-0.7,0.2-1,0.5c-0.2,0.3-0.3,0.7-0.2,1.1c0.1,0.3,1.6,7.1,7,7.1h66.1c5.4,0,6.9-6.8,7-7.1
	C92.3,70.8,92.2,70.4,91.9,70.1z M85.2,75.7H19c-2.2,0-3.4-2.1-4.1-3.6h29.7l0.7,0.8c0.2,0.3,0.6,0.5,1,0.5h11.6
	c0.4,0,0.7-0.2,1-0.5l0.7-0.8h29.7C88.6,73.6,87.4,75.7,85.2,75.7z"/>
<path style="fill:#FDFEFF;" d="M35.7,34.6c-1.8,0-3.3,1.5-3.3,3.3v22.7c0,1.8,1.5,3.2,3.3,3.2h32.8c1.8,0,3.3-1.5,3.3-3.3V37.9
	c0-1.8-1.5-3.3-3.3-3.3H35.7z M69.2,37.9v22.7c0,0.4-0.3,0.8-0.8,0.8H35.7c-0.4,0-0.8-0.3-0.8-0.8V37.9c0-0.4,0.3-0.8,0.8-0.8h32.8
	C68.9,37.1,69.2,37.5,69.2,37.9z"/>
<path style="fill:#FDFEFF;" d="M64.8,40.2l-25.8,0c0,0,0,0,0,0c-0.7,0-1.2,0.6-1.2,1.2c0,0.7,0.6,1.3,1.2,1.3l25.8,0c0,0,0,0,0,0
	c0.7,0,1.2-0.6,1.2-1.2C66,40.8,65.5,40.2,64.8,40.2z"/>
<path style="fill:#FDFEFF;" d="M64.8,44.8l-25.8,0c0,0,0,0,0,0c-0.7,0-1.2,0.6-1.2,1.2c0,0.7,0.6,1.3,1.2,1.3l25.8,0h0
	c0.7,0,1.2-0.6,1.2-1.2C66,45.4,65.5,44.8,64.8,44.8z"/>
<path style="fill:#FDFEFF;" d="M64.8,53.4C64.8,53.4,64.8,53.4,64.8,53.4l-13,0.1c-0.7,0-1.2,0.6-1.2,1.3c0,0.7,0.6,1.2,1.2,1.2
	c0,0,0,0,0,0l13-0.1c0.7,0,1.2-0.6,1.2-1.3C66,53.9,65.5,53.4,64.8,53.4z"/>
<path style="fill:#FDFEFF;" d="M46.6,53.5h-0.1c-0.7,0-1.2,0.6-1.2,1.2s0.6,1.2,1.2,1.2h0.1c0.7,0,1.2-0.6,1.2-1.2
	S47.3,53.5,46.6,53.5z"/>
<path style="fill:#FDFEFF;" d="M42.1,50.4c-0.3-0.2-0.6-0.2-1-0.2h-1.3v0h-1.1v2.6H38v1.1h0.7v0.6H38v1.1h0.7v0.7h1.1v-0.7H41v-1.1
	h-1.1v-0.5h1.3c0.3,0,0.7-0.1,1-0.2c0.3-0.2,0.5-0.4,0.7-0.7c0.2-0.3,0.2-0.6,0.2-1c0-0.3-0.1-0.7-0.2-1
	C42.6,50.7,42.4,50.5,42.1,50.4z M41.7,52.4c-0.1,0.1-0.1,0.2-0.2,0.3c-0.1,0.1-0.2,0.1-0.4,0.1H41v0h-1.1v-1.5h1.3
	c0.1,0,0.3,0,0.4,0.1c0.1,0.1,0.2,0.2,0.2,0.3c0.1,0.1,0.1,0.3,0.1,0.4C41.8,52.1,41.8,52.2,41.7,52.4z"/>
</svg>
