<?xml version="1.0" encoding="utf-8"?>
<!-- Generator: Adobe Illustrator 25.4.1, SVG Export Plug-In . SVG Version: 6.00 Build 0)  -->
<svg version="1.1" id="Layer_1" xmlns="http://www.w3.org/2000/svg" xmlns:xlink="http://www.w3.org/1999/xlink" x="0px" y="0px"
	 width="188px" height="188px" viewBox="0 0 188 188" style="enable-background:new 0 0 188 188;" xml:space="preserve">
<g>
	<path style="fill:#7195C9;" d="M96.2,26.5h22.2c1.2,0,2.2-1,2.2-2.2V2.2c0-1.2-1-2.2-2.2-2.2H96.2C95,0,94,1,94,2.2v22.2
		C94,25.6,95,26.5,96.2,26.5z M98.3,4.3h17.9v17.9H98.3V4.3z"/>
	<path style="fill:#7195C9;" d="M185.8,0h-22.2c-1.2,0-2.2,1-2.2,2.2v22.2c0,1.2,1,2.2,2.2,2.2h22.2c1.2,0,2.2-1,2.2-2.2V2.2
		C188,1,187,0,185.8,0z M183.7,22.2h-17.9V4.3h17.9V22.2z"/>
	<path style="fill:#7195C9;" d="M130.8,15.4H141c1.2,0,2.2-1,2.2-2.2s-1-2.2-2.2-2.2h-8.1V2.2c0-1.2-1-2.2-2.2-2.2s-2.2,1-2.2,2.2
		v11.1C128.6,14.5,129.6,15.4,130.8,15.4z"/>
	<path style="fill:#7195C9;" d="M103.8,34.1h-7.7c-1.2,0-2.2,1-2.2,2.2s1,2.2,2.2,2.2h7.7c1.2,0,2.2-1,2.2-2.2S105,34.1,103.8,34.1z
		"/>
	<path style="fill:#7195C9;" d="M132.9,36.2V24.4c0-1.2-1-2.2-2.2-2.2s-2.2,1-2.2,2.2v9.7h-10.2c-1.2,0-2.2,1-2.2,2.2V47
		c0,1.2,1,2.2,2.2,2.2c1.2,0,2.2-1,2.2-2.2v-8.6h10.2C131.9,38.4,132.9,37.4,132.9,36.2z"/>
	<path style="fill:#7195C9;" d="M143.2,38.4h8.4c1.2,0,2.2-1,2.2-2.2V24.4c0-1.2-1-2.2-2.2-2.2H141c-1.2,0-2.2,1-2.2,2.2
		s1,2.2,2.2,2.2h8.4v7.6H141c-1.2,0-2.2,1-2.2,2.2v8.6h-8.1c-1.2,0-2.2,1-2.2,2.2v10.1c0,1.2,1,2.2,2.2,2.2s2.2-1,2.2-2.2v-7.9h8.1
		c1.2,0,2.2-1,2.2-2.2V38.4z"/>
	<path style="fill:#7195C9;" d="M146.3,4.3h3.1v8.9c0,1.2,1,2.2,2.2,2.2s2.2-1,2.2-2.2V2.2c0-1.2-1-2.2-2.2-2.2h-5.3
		c-1.2,0-2.2,1-2.2,2.2S145.1,4.3,146.3,4.3z"/>
	<path style="fill:#7195C9;" d="M96.2,44.8c-1.2,0-2.2,1-2.2,2.2v10.1c0,1.2,1,2.2,2.2,2.2s2.2-1,2.2-2.2V47
		C98.3,45.8,97.4,44.8,96.2,44.8z"/>
	<path style="fill:#7195C9;" d="M118.4,57.5h-6.8v-8c0-1.2-1-2.2-2.2-2.2s-2.2,1-2.2,2.2v10.2c0,1.2,1,2.2,2.2,2.2h9
		c1.2,0,2.2-1,2.2-2.2C120.5,58.4,119.6,57.5,118.4,57.5z"/>
	<path style="fill:#7195C9;" d="M141,57.5c-1.2,0-2.2,1-2.2,2.2v7.9h-8.1c-1.2,0-2.2,1-2.2,2.2s1,2.2,2.2,2.2H141
		c1.2,0,2.2-1,2.2-2.2v-10C143.2,58.4,142.2,57.5,141,57.5z"/>
	<path style="fill:#7195C9;" d="M141.2,78.6h-10.4c-1.2,0-2.2,1-2.2,2.2s1,2.2,2.2,2.2h8.3v6.8h-8.3c-1.2,0-2.2,1-2.2,2.2
		c0,1.2,1,2.2,2.2,2.2h10.4c1.2,0,2.2-1,2.2-2.2V80.7C143.3,79.5,142.4,78.6,141.2,78.6z"/>
	<path style="fill:#7195C9;" d="M170.4,38.6h-6.7c-1.2,0-2.2,1-2.2,2.2s1,2.2,2.2,2.2h6.7c1.2,0,2.2-1,2.2-2.2
		S171.6,38.6,170.4,38.6z"/>
	<path style="fill:#7195C9;" d="M185.8,81.3h-8.9V69.6c0-1.2-1-2.2-2.2-2.2s-2.2,1-2.2,2.2v13.9c0,1.2,1,2.2,2.2,2.2h8.9v6.2
		c0,1.2,1,2.2,2.2,2.2s2.2-1,2.2-2.2v-8.3C188,82.3,187,81.3,185.8,81.3z"/>
	<path style="fill:#7195C9;" d="M163.6,82.9c1.2,0,2.2-1,2.2-2.2s-1-2.2-2.2-2.2h-6c-1.2,0-2.2,1-2.2,2.2v8.9h-3.9
		c-1.2,0-2.2,1-2.2,2.2c0,1.2,1,2.2,2.2,2.2h12.1c1.2,0,2.2-1,2.2-2.2c0-1.2-1-2.2-2.2-2.2h-3.9v-6.8H163.6z"/>
	<path style="fill:#7195C9;" d="M163.6,52.4c-1.2,0-2.2,1-2.2,2.2v12.9h-7.7V47c0-1.2-1-2.2-2.2-2.2s-2.2,1-2.2,2.2v22.6
		c0,1.2,1,2.2,2.2,2.2h12.1c1.2,0,2.2-1,2.2-2.2V54.5C165.8,53.3,164.8,52.4,163.6,52.4z"/>
	<path style="fill:#7195C9;" d="M185.8,49.9c-1.2,0-2.2,1-2.2,2.2v2.9h-8.9c-1.2,0-2.2,1-2.2,2.2c0,1.2,1,2.2,2.2,2.2h8.9v10.4
		c0,1.2,1,2.2,2.2,2.2s2.2-1,2.2-2.2V52C188,50.8,187,49.9,185.8,49.9z"/>
	<path style="fill:#7195C9;" d="M185.8,33.5h-5.5c-1.2,0-2.2,1-2.2,2.2s1,2.2,2.2,2.2h3.4v7c0,1.2,1,2.2,2.2,2.2s2.2-1,2.2-2.2v-9.2
		C188,34.5,187,33.5,185.8,33.5z"/>
</g>
<circle style="fill:#FFFFFF;" cx="81.6" cy="106.5" r="80.5"/>
<path style="fill:#F87C56;" d="M67.1,138.5c-0.4-1.4-0.4-2.9,0-4.3H51.6c-3.3,0-6-2.6-6-6V100c0-7.6,6.2-13.9,13.9-13.9
	c1.4,0,2.5-1.1,2.5-2.5v-8.3h13.4v8.3c0,1.4,1.1,2.5,2.5,2.5c7.6,0,13.9,6.2,13.9,13.9v8.3l4.9-4.9V100c0-9.6-7.1-17.5-16.4-18.6v-6
	h3.2c1.4,0,2.5-1.1,2.5-2.5V60.5c0-1.4-1.1-2.5-2.5-2.5H54.1c-1.4,0-2.5,1.1-2.5,2.5V73c0,1.4,1.1,2.5,2.5,2.5h3.2v5.8
	c-9.1,1.2-16.4,9.1-16.4,18.6v28.4c0,6,4.9,10.8,10.8,10.8h15.7L67.1,138.5z M56.4,70.5v-7.6H81v7.6H56.4z"/>
<path style="fill:#F87C56;" d="M135.2,102.6l-12.5-12.5c-1-1-2.5-1-3.5,0c-1,1-1,2.5,0,3.5l4.6,4.6l-8.3,8.3l-5.8-5.8
	c-1-1-2.5-1-3.5,0l-33.8,33.8c-0.7,0.7-0.8,1.5-0.6,2.5l3.2,10l-8.9,8.9c-1,1-1,2.5,0,3.5c0.4,0.4,1.1,0.7,1.7,0.7
	c0.6,0,1.2-0.3,1.7-0.7l8.7-8.7l10,3.2c0.3,0.1,0.4,0.1,0.7,0.1c0.7,0,1.2-0.3,1.7-0.7l34-34c0.4-0.4,0.7-1.1,0.7-1.7
	c0-0.6-0.3-1.2-0.7-1.7l-5.7-6.1l8.3-8.3l4.6,4.6c0.4,0.4,1.1,0.7,1.7,0.7c0.6,0,1.2-0.3,1.7-0.7C136,105.1,136,103.6,135.2,102.6z
	 M119.5,117.3l-5.5,5.5l-5-5c-1-1-2.5-1-3.5,0c-1,1-1,2.5,0,3.5l5,5l-5.5,5.5l-5-4.9c-1-1-2.5-1-3.5,0c-1,1-1,2.5,0,3.5l5,5
	l-5.7,5.7l-5-5c-1-1-2.5-1-3.5,0c-1,1-1,2.5,0,3.5l5,5l-4,3.9l-8.7-2.8l-2.8-8.7l31.2-31.2L119.5,117.3z"/>
<path style="fill:#F87C56;" d="M68.8,120.7c1.4,0,2.5-1.1,2.5-2.5v-7.9h7.9c1.4,0,2.5-1.1,2.5-2.5c0-1.4-1.1-2.5-2.5-2.5h-7.9v-7.9
	c0-1.4-1.1-2.5-2.5-2.5c-1.4,0-2.5,1.1-2.5,2.5v7.9h-7.9c-1.4,0-2.5,1.1-2.5,2.5c0,1.4,1.1,2.5,2.5,2.5h7.9v7.9
	C66.3,119.5,67.4,120.7,68.8,120.7z"/>
<path style="fill:#7195C9;" d="M82,28c43,0,78,35,78,78s-35,78-78,78S4,149,4,106S39,28,82,28 M82,24C36.8,24,0,60.7,0,106
	s36.7,82,82,82s82-36.7,82-82S127.3,24,82,24L82,24z"/>
</svg>
