<?xml version="1.0" encoding="utf-8"?>
<!-- Generator: Adobe Illustrator 25.4.1, SVG Export Plug-In . SVG Version: 6.00 Build 0)  -->
<svg version="1.1" id="Layer_1" xmlns="http://www.w3.org/2000/svg" xmlns:xlink="http://www.w3.org/1999/xlink" x="0px" y="0px"
	 width="188px" height="188px" viewBox="0 0 188 188" style="enable-background:new 0 0 188 188;" xml:space="preserve">
<g>
	<path style="fill:#7195C9;" d="M96.2,26.5h22.2c1.2,0,2.2-1,2.2-2.2V2.2c0-1.2-1-2.2-2.2-2.2H96.2C95,0,94,1,94,2.2v22.2
		C94,25.6,95,26.5,96.2,26.5z M98.3,4.3h17.9v17.9H98.3V4.3z"/>
	<path style="fill:#7195C9;" d="M185.8,0h-22.2c-1.2,0-2.2,1-2.2,2.2v22.2c0,1.2,1,2.2,2.2,2.2h22.2c1.2,0,2.2-1,2.2-2.2V2.2
		C188,1,187,0,185.8,0z M183.7,22.2h-17.9V4.3h17.9V22.2z"/>
	<path style="fill:#7195C9;" d="M130.8,15.4H141c1.2,0,2.2-1,2.2-2.2s-1-2.2-2.2-2.2h-8.1V2.2c0-1.2-1-2.2-2.2-2.2s-2.2,1-2.2,2.2
		v11.1C128.6,14.5,129.6,15.4,130.8,15.4z"/>
	<path style="fill:#7195C9;" d="M103.8,34.1h-7.7c-1.2,0-2.2,1-2.2,2.2s1,2.2,2.2,2.2h7.7c1.2,0,2.2-1,2.2-2.2S105,34.1,103.8,34.1z
		"/>
	<path style="fill:#7195C9;" d="M132.9,36.2V24.4c0-1.2-1-2.2-2.2-2.2s-2.2,1-2.2,2.2v9.7h-10.2c-1.2,0-2.2,1-2.2,2.2V47
		c0,1.2,1,2.2,2.2,2.2c1.2,0,2.2-1,2.2-2.2v-8.6h10.2C131.9,38.4,132.9,37.4,132.9,36.2z"/>
	<path style="fill:#7195C9;" d="M143.2,38.4h8.4c1.2,0,2.2-1,2.2-2.2V24.4c0-1.2-1-2.2-2.2-2.2H141c-1.2,0-2.2,1-2.2,2.2
		s1,2.2,2.2,2.2h8.4v7.6H141c-1.2,0-2.2,1-2.2,2.2v8.6h-8.1c-1.2,0-2.2,1-2.2,2.2v10.1c0,1.2,1,2.2,2.2,2.2s2.2-1,2.2-2.2v-7.9h8.1
		c1.2,0,2.2-1,2.2-2.2V38.4z"/>
	<path style="fill:#7195C9;" d="M146.3,4.3h3.1v8.9c0,1.2,1,2.2,2.2,2.2s2.2-1,2.2-2.2V2.2c0-1.2-1-2.2-2.2-2.2h-5.3
		c-1.2,0-2.2,1-2.2,2.2S145.1,4.3,146.3,4.3z"/>
	<path style="fill:#7195C9;" d="M96.2,44.8c-1.2,0-2.2,1-2.2,2.2v10.1c0,1.2,1,2.2,2.2,2.2s2.2-1,2.2-2.2V47
		C98.3,45.8,97.4,44.8,96.2,44.8z"/>
	<path style="fill:#7195C9;" d="M118.4,57.5h-6.8v-8c0-1.2-1-2.2-2.2-2.2s-2.2,1-2.2,2.2v10.2c0,1.2,1,2.2,2.2,2.2h9
		c1.2,0,2.2-1,2.2-2.2C120.5,58.4,119.6,57.5,118.4,57.5z"/>
	<path style="fill:#7195C9;" d="M141,57.5c-1.2,0-2.2,1-2.2,2.2v7.9h-8.1c-1.2,0-2.2,1-2.2,2.2s1,2.2,2.2,2.2H141
		c1.2,0,2.2-1,2.2-2.2v-10C143.2,58.4,142.2,57.5,141,57.5z"/>
	<path style="fill:#7195C9;" d="M141.2,78.6h-10.4c-1.2,0-2.2,1-2.2,2.2s1,2.2,2.2,2.2h8.3v6.8h-8.3c-1.2,0-2.2,1-2.2,2.2
		c0,1.2,1,2.2,2.2,2.2h10.4c1.2,0,2.2-1,2.2-2.2V80.7C143.3,79.5,142.4,78.6,141.2,78.6z"/>
	<path style="fill:#7195C9;" d="M170.4,38.6h-6.7c-1.2,0-2.2,1-2.2,2.2s1,2.2,2.2,2.2h6.7c1.2,0,2.2-1,2.2-2.2
		S171.6,38.6,170.4,38.6z"/>
	<path style="fill:#7195C9;" d="M185.8,81.3h-8.9V69.6c0-1.2-1-2.2-2.2-2.2s-2.2,1-2.2,2.2v13.9c0,1.2,1,2.2,2.2,2.2h8.9v6.2
		c0,1.2,1,2.2,2.2,2.2s2.2-1,2.2-2.2v-8.3C188,82.3,187,81.3,185.8,81.3z"/>
	<path style="fill:#7195C9;" d="M163.6,82.9c1.2,0,2.2-1,2.2-2.2s-1-2.2-2.2-2.2h-6c-1.2,0-2.2,1-2.2,2.2v8.9h-3.9
		c-1.2,0-2.2,1-2.2,2.2c0,1.2,1,2.2,2.2,2.2h12.1c1.2,0,2.2-1,2.2-2.2c0-1.2-1-2.2-2.2-2.2h-3.9v-6.8H163.6z"/>
	<path style="fill:#7195C9;" d="M163.6,52.4c-1.2,0-2.2,1-2.2,2.2v12.9h-7.7V47c0-1.2-1-2.2-2.2-2.2s-2.2,1-2.2,2.2v22.6
		c0,1.2,1,2.2,2.2,2.2h12.1c1.2,0,2.2-1,2.2-2.2V54.5C165.8,53.3,164.8,52.4,163.6,52.4z"/>
	<path style="fill:#7195C9;" d="M185.8,49.9c-1.2,0-2.2,1-2.2,2.2v2.9h-8.9c-1.2,0-2.2,1-2.2,2.2c0,1.2,1,2.2,2.2,2.2h8.9v10.4
		c0,1.2,1,2.2,2.2,2.2s2.2-1,2.2-2.2V52C188,50.8,187,49.9,185.8,49.9z"/>
	<path style="fill:#7195C9;" d="M185.8,33.5h-5.5c-1.2,0-2.2,1-2.2,2.2s1,2.2,2.2,2.2h3.4v7c0,1.2,1,2.2,2.2,2.2s2.2-1,2.2-2.2v-9.2
		C188,34.5,187,33.5,185.8,33.5z"/>
</g>
<circle style="fill:#FFFFFF;" cx="81.6" cy="106.5" r="80.5"/>
<path style="fill:#7195C9;" d="M82,28c43,0,78,35,78,78s-35,78-78,78S4,149,4,106S39,28,82,28 M82,24C36.8,24,0,60.7,0,106
	s36.7,82,82,82s82-36.7,82-82S127.3,24,82,24L82,24z"/>
<path style="fill:#00B388;" d="M74.5,144c-1.6,1.6-3.7,2.5-6.1,2.5c-4.7,0-8.5-3.7-8.5-8.5V91.6h16.9v10.4l5.4-5.4V76.1h1.7
	c1.6,0,2.8-1.2,2.8-2.8V60.2c0-1.4-1.2-2.6-2.8-2.6H52.7c-1.6,0-2.8,1.2-2.8,2.8v13.1c0,1.6,1.2,2.8,2.8,2.8h1.7v61.8
	c0,7.6,6.2,14,14,14c2.8,0,5.4-0.8,7.6-2.3C74.8,148.1,74.1,146,74.5,144z M76.8,86.2H59.8V76.1h16.9V86.2z M55.3,70.7V63h26v7.6
	H55.3z"/>
<path style="fill:#00B388;" d="M138.6,118.7c-1.6,0-2.8,1.2-2.8,2.8v2.2h-7.9c-0.5-3.6-1.9-6.8-4-9.6l5.6-5.6l1.6,1.6
	c0.5,0.5,1.2,0.8,1.9,0.8c0.6,0,1.4-0.3,1.9-0.8c1.1-1.1,1.1-2.8,0-3.9l-7-7c-1.1-1.1-2.8-1.1-3.9,0s-1.1,2.8,0,3.9l1.6,1.6
	l-5.6,5.6c-2.8-2.2-6.1-3.6-9.6-4v-7.9h2.2c1.6,0,2.8-1.2,2.8-2.8s-1.2-2.8-2.8-2.8h-9.8c-1.6,0-2.8,1.2-2.8,2.8s1.2,2.8,2.8,2.8
	h2.2v7.9c-3.6,0.5-6.8,1.9-9.6,4l-5.6-5.6l1.6-1.6c1.1-1.1,1.1-2.8,0-3.9s-2.8-1.1-3.9,0l-7,7c-1.1,1.1-1.1,2.8,0,3.9
	c0.5,0.5,1.2,0.8,1.9,0.8c0.6,0,1.4-0.3,1.9-0.8l1.6-1.6l5.6,5.6c-2.2,2.8-3.6,6.1-4,9.6h-7.9v-2.2c0-1.6-1.2-2.8-2.8-2.8
	s-2.8,1.2-2.8,2.8v9.8c0,1.6,1.2,2.8,2.8,2.8s2.8-1.2,2.8-2.8v-2.3H87c0.5,3.6,1.9,6.8,4,9.6l-5.6,5.6l-1.6-1.6
	c-1.1-1.1-2.8-1.1-3.9,0c-1.1,1.1-1.1,2.8,0,3.9l7,7c0.5,0.5,1.2,0.8,1.9,0.8c0.6,0,1.4-0.3,1.9-0.8c1.1-1.1,1.1-2.8,0-3.9l-1.6-1.6
	l5.6-5.6c2.8,2.2,6.1,3.6,9.6,4v7.9h-2.2c-1.6,0-2.8,1.2-2.8,2.8s1.2,2.8,2.8,2.8h9.8c1.6,0,2.8-1.2,2.8-2.8s-1.2-2.8-2.8-2.8h-2.2
	v-7.9c3.6-0.5,6.8-1.9,9.6-4l5.6,5.6l-1.6,1.6c-1.1,1.1-1.1,2.8,0,3.9c0.5,0.5,1.2,0.8,1.9,0.8c0.6,0,1.4-0.3,1.9-0.8l7-7
	c1.1-1.1,1.1-2.8,0-3.9s-2.8-1.1-3.9,0l-1.6,1.6l-5.6-5.6c2.2-2.8,3.6-6.1,4-9.6h7.9v2.2c0,1.6,1.2,2.8,2.8,2.8s2.8-1.2,2.8-2.8
	v-9.8C141.3,119.9,140.2,118.7,138.6,118.7z M107.7,141.4c-8.2,0-15.1-6.7-15.1-15.1c0-8.4,6.7-15.1,15.1-15.1
	c8.4,0,15.1,6.7,15.1,15.1C122.8,134.7,115.9,141.4,107.7,141.4z"/>
<path style="fill:#00B388;" d="M107.7,117.3c-5,0-9,4-9,9c0,1.6,1.2,2.8,2.8,2.8c1.6,0,2.8-1.2,2.8-2.8c0-2,1.6-3.6,3.6-3.6
	c1.6,0,2.8-1.2,2.8-2.8C110.7,118.4,109.3,117.3,107.7,117.3z"/>
<path style="fill:#00B388;" d="M40.6,130V60.2c0-1.6-1.2-2.8-2.8-2.8c-1.6,0-2.8,1.2-2.8,2.8V130c-3.4,1.4-5.9,5.6-5.9,10.6
	c0,6.2,3.7,11.2,8.5,11.2c4.8,0,8.5-5,8.5-11.2C46.5,135.6,44,131.4,40.6,130z M37.9,146.3c-1.6,0-3.1-2.5-3.1-5.7
	c0-3.3,1.7-5.7,3.1-5.7s3.1,2.5,3.1,5.7C41,143.9,39.3,146.3,37.9,146.3z"/>
</svg>
