<?xml version="1.0" encoding="utf-8"?>
<!-- Generator: Adobe Illustrator 25.4.1, SVG Export Plug-In . SVG Version: 6.00 Build 0)  -->
<svg version="1.1" id="Layer_1" xmlns="http://www.w3.org/2000/svg" xmlns:xlink="http://www.w3.org/1999/xlink" x="0px" y="0px"
	 width="188px" height="188px" viewBox="0 0 188 188" style="enable-background:new 0 0 188 188;" xml:space="preserve">
<g>
	<path style="fill:#7195C9;" d="M96.2,26.5h22.2c1.2,0,2.2-1,2.2-2.2V2.2c0-1.2-1-2.2-2.2-2.2H96.2C95,0,94,1,94,2.2v22.2
		C94,25.6,95,26.5,96.2,26.5z M98.3,4.3h17.9v17.9H98.3V4.3z"/>
	<path style="fill:#7195C9;" d="M185.8,0h-22.2c-1.2,0-2.2,1-2.2,2.2v22.2c0,1.2,1,2.2,2.2,2.2h22.2c1.2,0,2.2-1,2.2-2.2V2.2
		C188,1,187,0,185.8,0z M183.7,22.2h-17.9V4.3h17.9V22.2z"/>
	<path style="fill:#7195C9;" d="M130.8,15.4H141c1.2,0,2.2-1,2.2-2.2s-1-2.2-2.2-2.2h-8.1V2.2c0-1.2-1-2.2-2.2-2.2s-2.2,1-2.2,2.2
		v11.1C128.6,14.5,129.6,15.4,130.8,15.4z"/>
	<path style="fill:#7195C9;" d="M103.8,34.1h-7.7c-1.2,0-2.2,1-2.2,2.2s1,2.2,2.2,2.2h7.7c1.2,0,2.2-1,2.2-2.2S105,34.1,103.8,34.1z
		"/>
	<path style="fill:#7195C9;" d="M132.9,36.2V24.4c0-1.2-1-2.2-2.2-2.2s-2.2,1-2.2,2.2v9.7h-10.2c-1.2,0-2.2,1-2.2,2.2V47
		c0,1.2,1,2.2,2.2,2.2c1.2,0,2.2-1,2.2-2.2v-8.6h10.2C131.9,38.4,132.9,37.4,132.9,36.2z"/>
	<path style="fill:#7195C9;" d="M143.2,38.4h8.4c1.2,0,2.2-1,2.2-2.2V24.4c0-1.2-1-2.2-2.2-2.2H141c-1.2,0-2.2,1-2.2,2.2
		s1,2.2,2.2,2.2h8.4v7.6H141c-1.2,0-2.2,1-2.2,2.2v8.6h-8.1c-1.2,0-2.2,1-2.2,2.2v10.1c0,1.2,1,2.2,2.2,2.2s2.2-1,2.2-2.2v-7.9h8.1
		c1.2,0,2.2-1,2.2-2.2V38.4z"/>
	<path style="fill:#7195C9;" d="M146.3,4.3h3.1v8.9c0,1.2,1,2.2,2.2,2.2s2.2-1,2.2-2.2V2.2c0-1.2-1-2.2-2.2-2.2h-5.3
		c-1.2,0-2.2,1-2.2,2.2S145.1,4.3,146.3,4.3z"/>
	<path style="fill:#7195C9;" d="M96.2,44.8c-1.2,0-2.2,1-2.2,2.2v10.1c0,1.2,1,2.2,2.2,2.2s2.2-1,2.2-2.2V47
		C98.3,45.8,97.4,44.8,96.2,44.8z"/>
	<path style="fill:#7195C9;" d="M118.4,57.5h-6.8v-8c0-1.2-1-2.2-2.2-2.2s-2.2,1-2.2,2.2v10.2c0,1.2,1,2.2,2.2,2.2h9
		c1.2,0,2.2-1,2.2-2.2C120.5,58.4,119.6,57.5,118.4,57.5z"/>
	<path style="fill:#7195C9;" d="M141,57.5c-1.2,0-2.2,1-2.2,2.2v7.9h-8.1c-1.2,0-2.2,1-2.2,2.2s1,2.2,2.2,2.2H141
		c1.2,0,2.2-1,2.2-2.2v-10C143.2,58.4,142.2,57.5,141,57.5z"/>
	<path style="fill:#7195C9;" d="M141.2,78.6h-10.4c-1.2,0-2.2,1-2.2,2.2s1,2.2,2.2,2.2h8.3v6.8h-8.3c-1.2,0-2.2,1-2.2,2.2
		c0,1.2,1,2.2,2.2,2.2h10.4c1.2,0,2.2-1,2.2-2.2V80.7C143.3,79.5,142.4,78.6,141.2,78.6z"/>
	<path style="fill:#7195C9;" d="M170.4,38.6h-6.7c-1.2,0-2.2,1-2.2,2.2s1,2.2,2.2,2.2h6.7c1.2,0,2.2-1,2.2-2.2
		S171.6,38.6,170.4,38.6z"/>
	<path style="fill:#7195C9;" d="M185.8,81.3h-8.9V69.6c0-1.2-1-2.2-2.2-2.2s-2.2,1-2.2,2.2v13.9c0,1.2,1,2.2,2.2,2.2h8.9v6.2
		c0,1.2,1,2.2,2.2,2.2s2.2-1,2.2-2.2v-8.3C188,82.3,187,81.3,185.8,81.3z"/>
	<path style="fill:#7195C9;" d="M163.6,82.9c1.2,0,2.2-1,2.2-2.2s-1-2.2-2.2-2.2h-6c-1.2,0-2.2,1-2.2,2.2v8.9h-3.9
		c-1.2,0-2.2,1-2.2,2.2c0,1.2,1,2.2,2.2,2.2h12.1c1.2,0,2.2-1,2.2-2.2c0-1.2-1-2.2-2.2-2.2h-3.9v-6.8H163.6z"/>
	<path style="fill:#7195C9;" d="M163.6,52.4c-1.2,0-2.2,1-2.2,2.2v12.9h-7.7V47c0-1.2-1-2.2-2.2-2.2s-2.2,1-2.2,2.2v22.6
		c0,1.2,1,2.2,2.2,2.2h12.1c1.2,0,2.2-1,2.2-2.2V54.5C165.8,53.3,164.8,52.4,163.6,52.4z"/>
	<path style="fill:#7195C9;" d="M185.8,49.9c-1.2,0-2.2,1-2.2,2.2v2.9h-8.9c-1.2,0-2.2,1-2.2,2.2c0,1.2,1,2.2,2.2,2.2h8.9v10.4
		c0,1.2,1,2.2,2.2,2.2s2.2-1,2.2-2.2V52C188,50.8,187,49.9,185.8,49.9z"/>
	<path style="fill:#7195C9;" d="M185.8,33.5h-5.5c-1.2,0-2.2,1-2.2,2.2s1,2.2,2.2,2.2h3.4v7c0,1.2,1,2.2,2.2,2.2s2.2-1,2.2-2.2v-9.2
		C188,34.5,187,33.5,185.8,33.5z"/>
</g>
<circle style="fill:#FFFFFF;" cx="81.6" cy="106.5" r="80.5"/>
<path style="fill:#7195C9;" d="M82,28c43,0,78,35,78,78s-35,78-78,78S4,149,4,106S39,28,82,28 M82,24C36.8,24,0,60.7,0,106
	s36.7,82,82,82s82-36.7,82-82S127.3,24,82,24L82,24z"/>
<path style="fill:#F8485E;" d="M117.5,68.3h-5.5v-8c0-1.3-1-2.3-2.3-2.3H96.6c-1.3,0-2.3,1-2.3,2.3v8H69.9v-8c0-1.3-1-2.3-2.3-2.3
	H54.6c-1.3,0-2.3,1-2.3,2.3v8h-5.5c-4.7,0-8.6,3.8-8.6,8.6v49.9c0,4.7,3.8,8.6,8.6,8.6h3.9V131h-3.9c-2.3,0-4.2-1.9-4.2-4.2V87.7
	h78.7v39c0,2.3-1.9,4.2-4.2,4.2h-3.6v4.4h3.9c4.7,0,8.6-3.8,8.6-8.6V76.9C125.9,72.1,122.1,68.3,117.5,68.3z M98.7,62.5h8.7v5.8
	h-8.7V62.5z M56.8,62.5h8.7v5.8h-8.7V62.5z M121.6,83.3h-0.1H42.7v-6.5c0-2.3,1.9-4.2,4.2-4.2h70.6c2.3,0,4.2,1.8,4.2,4.2V83.3z"/>
<path style="fill:#F8485E;" d="M106.9,126.9c-1.3,0-2.3,1-2.3,2.3v1.8h-6.3c-0.4-2.9-1.5-5.5-3.3-7.7l4.5-4.5l1.3,1.3
	c0.4,0.4,1,0.6,1.5,0.6c0.5,0,1.1-0.3,1.5-0.6c0.9-0.9,0.9-2.3,0-3.1l-5.4-5.7c-0.9-0.9-2.3-0.9-3.1,0s-0.9,2.3,0,3.1l1.3,1.3
	l-4.5,4.5c-2.3-1.6-4.9-2.8-7.7-3.3v-6.3h1.8c1.3,0,2.3-1,2.3-2.3c0-1.3-1-2.3-2.3-2.3h-7.9c-1.3,0-2.3,1-2.3,2.3
	c0,1.3,1,2.3,2.3,2.3H80v6.3c-2.9,0.4-5.5,1.5-7.7,3.3l-4.5-4.5l1.3-1.3c0.9-0.9,0.9-2.3,0-3.1c-0.9-0.9-2.3-0.9-3.1,0l-5.5,5.5
	c-0.9,0.9-0.9,2.3,0,3.1c0.4,0.4,1,0.6,1.5,0.6c0.5,0,1.1-0.3,1.5-0.6l1.3-1.3l4.5,4.5c-1.6,2.3-2.8,4.9-3.3,7.7h-6.3v-1.8
	c0-1.3-1-2.3-2.3-2.3c-1.3,0-2.3,1-2.3,2.3v7.9c0,1.3,1,2.3,2.3,2.3c1.3,0,2.3-1,2.3-2.3v-1.8h6.3c0.4,2.9,1.5,5.5,3.3,7.7l-4.5,4.5
	l-1.3-1.3c-0.9-0.9-2.3-0.9-3.1,0c-0.9,0.9-0.9,2.3,0,3.1l5.5,5.5c0.4,0.4,1,0.6,1.5,0.6s1.1-0.3,1.5-0.6c0.9-0.9,0.9-2.3,0-3.1
	l-1.3-1.3l4.5-4.5c2.3,1.6,4.9,2.8,7.7,3.3v6.3H78c-1.3,0-2.3,1-2.3,2.3s1,2.3,2.3,2.3h7.9c1.3,0,2.3-1,2.3-2.3s-0.9-2.1-2.1-2.1
	h-1.8v-6.3c2.9-0.4,5.5-1.5,7.7-3.3l4.5,4.5l-1.3,1.3c-0.9,0.9-0.9,2.3,0,3.1c0.4,0.4,1,0.6,1.5,0.6c0.5,0,1.1-0.3,1.5-0.6l5.5-5.5
	c0.9-0.9,0.9-2.3,0-3.1c-0.9-0.9-2.3-0.9-3.1,0l-1.3,1.3l-4.5-4.5c1.6-2.3,2.8-4.9,3.3-7.7h6.3v1.8c0,1.3,1,2.3,2.3,2.3
	s2.3-1,2.3-2.3v-7.9C109.2,127.9,108.1,126.9,106.9,126.9z M82.1,145C75.4,145,70,139.6,70,133s5.4-12.1,12.1-12.1
	c6.7,0,12.1,5.4,12.1,12.1S88.8,145,82.1,145z"/>
<path style="fill:#F8485E;" d="M82.1,125.8c-4,0-7.2,3.3-7.2,7.2c0,1.3,1,2.3,2.3,2.3s2.3-1,2.3-2.3c0-1.5,1.3-2.8,2.8-2.8
	c1.3,0,2.3-1,2.3-2.3C84.5,126.7,83.4,125.8,82.1,125.8z"/>
</svg>
